<svg xmlns="http://www.w3.org/2000/svg" width="1024" height="1024">
<path d="M869,93 C868.731,95.8878 866.979,95.2819 869.5,98 C871.797,100.476 887.614,108.074 892.5,112 C914.537,129.708 927.443,155.876 932,183.5 C932,183.5 932,701.5 932,701.5 C926.667,734.053 905.515,762.866 876,777.5 C876,777.5 876,905.5 876,905.5 C868.563,933.209 840.333,936.547 816.5,928 C816.5,928 602.5,789 602.5,789 C457.013,784.726 310.441,792.596 165.5,785 C136.228,776.167 108.956,754.076 97,725.5 C92.5352,714.829 92.3363,702.223 89,693.5 C88.0442,691.001 87.7656,690.689 85,691 C78.6451,520.932 89.7625,346.975 85,176.5 C93.1006,128.818 130.955,92.7553 178.5,85 C178.5,85 842.5,85 842.5,85 C852.001,86.2081 860.193,89.619 869,93 Z M190.5,140 C162.969,143.763 143.852,163.233 140,190.5 C141.97,361.674 136.036,533.976 143,704.5 C151.192,723.954 168.744,735.779 189.5,738 C189.5,738 614.5,739 614.5,739 C614.5,739 632.5,746 632.5,746 C632.5,746 825.5,872 825.5,872 C825.5,872 827,740.5 827,740.5 C855.002,735.585 876.662,722.185 882,692.5 C880.03,521.325 885.963,349.024 879,178.5 C871.024,157.161 853.803,143.961 831.5,140 C831.5,140 190.5,140 190.5,140 Z " fill="rgb(42,95,220)"/>
<path d="M937,186 C937,186 935,713 935,713 C928.103,743.741 906.557,764.72 882,782.5 C878.473,819.798 886.724,866.225 882,902.5 C876.964,941.171 834.842,942.873 806.5,928 C736.253,891.138 668.751,830.654 597.5,794 C452.712,791.425 306.511,799.216 162.5,790 C116.231,774.779 86.8182,739.657 85,691 C87.7656,690.689 88.0442,691.001 89,693.5 C92.3363,702.223 92.5352,714.829 97,725.5 C108.956,754.076 136.228,776.167 165.5,785 C310.441,792.596 457.013,784.726 602.5,789 C602.5,789 816.5,928 816.5,928 C840.333,936.547 868.563,933.209 876,905.5 C876,905.5 876,777.5 876,777.5 C905.515,762.866 926.667,734.053 932,701.5 C932,701.5 932,183.5 932,183.5 C927.443,155.876 914.537,129.708 892.5,112 C887.614,108.074 871.797,100.476 869.5,98 C866.979,95.2819 868.731,95.8878 869,93 C907.334,107.717 934.17,144.831 937,186 Z " fill="rgb(36,49,130)"/>
<path d="M190.5,140 C190.5,140 831.5,140 831.5,140 C853.803,143.961 871.024,157.161 879,178.5 C885.963,349.024 880.03,521.325 882,692.5 C876.662,722.185 855.002,735.585 827,740.5 C827,740.5 825.5,872 825.5,872 C825.5,872 632.5,746 632.5,746 C632.5,746 614.5,739 614.5,739 C614.5,739 189.5,738 189.5,738 C168.744,735.779 151.192,723.954 143,704.5 C136.036,533.976 141.97,361.674 140,190.5 C143.852,163.233 162.969,143.763 190.5,140 Z M189.5,146 C165.854,149.96 149.873,167.18 146,190.5 C146,190.5 146,694.5 146,694.5 C150.952,713.635 166.123,727.263 185.5,731 C329.088,732.304 473.241,728.37 616.5,733 C616.5,733 631.5,739 631.5,739 C631.5,739 820.5,862 820.5,862 C820.5,862 821,736.5 821,736.5 C846.568,729.695 869.436,721.057 876,692.5 C874.034,521.317 879.958,349.072 873,178.5 C865.701,160.436 850.528,149.565 831.5,146 C831.5,146 189.5,146 189.5,146 Z " fill="rgb(35,51,133)"/>
<path d="M189.5,146 C189.5,146 831.5,146 831.5,146 C850.528,149.565 865.701,160.436 873,178.5 C879.958,349.072 874.034,521.317 876,692.5 C869.436,721.057 846.568,729.695 821,736.5 C821,736.5 820.5,862 820.5,862 C820.5,862 631.5,739 631.5,739 C631.5,739 616.5,733 616.5,733 C473.241,728.37 329.088,732.304 185.5,731 C166.123,727.263 150.952,713.635 146,694.5 C146,694.5 146,190.5 146,190.5 C149.873,167.18 165.854,149.96 189.5,146 Z M280.5,261 C245.209,268.782 244.304,315.412 280.5,323 C280.5,323 742.5,323 742.5,323 C776.741,313.658 777.908,269.287 742.5,261 C742.5,261 280.5,261 280.5,261 Z M280.5,416 C247.908,423.032 243.258,463.958 274.5,477 C430.702,480.989 588.054,479.002 744.5,478 C777.143,467.441 776.79,423.685 742.5,416 C742.5,416 280.5,416 280.5,416 Z M290.5,571 C239.38,575.313 243.946,629.908 283.5,635 C349.463,643.492 433.656,628.628 501.5,635 C541.497,628.157 542.827,576.14 501.5,571 C433.088,576.361 358.058,565.3 290.5,571 Z " fill="rgb(254,254,254)"/>
<path d="M935,713 C935,713 937,186 937,186 C937.366,361.476 941.29,538.001 935,713 Z " fill="rgb(9,24,106)"/>
<path d="M280.5,261 C280.5,261 742.5,261 742.5,261 C777.908,269.287 776.741,313.658 742.5,323 C742.5,323 280.5,323 280.5,323 C244.304,315.412 245.209,268.782 280.5,261 Z M282.5,266 C251.573,271.784 251.289,310.14 281.5,317 C281.5,317 740.5,317 740.5,317 C770.747,310.515 770.005,270.963 739.5,266 C739.5,266 282.5,266 282.5,266 Z " fill="rgb(35,52,135)"/>
<path d="M282.5,266 C282.5,266 739.5,266 739.5,266 C770.005,270.963 770.747,310.515 740.5,317 C740.5,317 281.5,317 281.5,317 C251.289,310.14 251.573,271.784 282.5,266 Z " fill="rgb(42,95,221)"/>
<path d="M280.5,416 C280.5,416 742.5,416 742.5,416 C776.79,423.685 777.143,467.441 744.5,478 C588.054,479.002 430.702,480.989 274.5,477 C243.258,463.958 247.908,423.032 280.5,416 Z M280.5,422 C253.661,428.755 251.179,463.187 278.5,472 C278.5,472 743.5,472 743.5,472 C769.263,463 769.677,429.042 742.5,422 C742.5,422 280.5,422 280.5,422 Z " fill="rgb(36,51,132)"/>
<path d="M280.5,422 C280.5,422 742.5,422 742.5,422 C769.677,429.042 769.263,463 743.5,472 C743.5,472 278.5,472 278.5,472 C251.179,463.187 253.661,428.755 280.5,422 Z " fill="rgb(42,95,221)"/>
<path d="M290.5,571 C358.058,565.3 433.088,576.361 501.5,571 C542.827,576.14 541.497,628.157 501.5,635 C433.656,628.628 349.463,643.492 283.5,635 C243.946,629.908 239.38,575.313 290.5,571 Z M495.5,577 C425.273,573.244 349.38,581.893 278.5,578 C249.68,587.721 253.724,625.079 284.5,629 C349.988,637.344 433.184,622.74 500.5,629 C533.328,624.582 538.73,579.312 495.5,577 Z " fill="rgb(35,51,131)"/>
<path d="M495.5,577 C538.73,579.312 533.328,624.582 500.5,629 C433.184,622.74 349.988,637.344 284.5,629 C253.724,625.079 249.68,587.721 278.5,578 C349.38,581.893 425.273,573.244 495.5,577 Z " fill="rgb(42,95,220)"/>
</svg>
